<svg width="14" height="16" viewBox="0 0 14 16" fill="none" xmlns="http://www.w3.org/2000/svg">
<g clip-path="url(#clip0_24368_82394)">
<path fill-rule="evenodd" clip-rule="evenodd" d="M8.09696 5.69952C8.5864 5.45547 9.20917 5.09621 9.83269 4.604C9.96416 4.87701 9.97856 5.11525 9.91083 5.30763C9.86283 5.4432 9.77237 5.56112 9.65344 5.65493C9.52464 5.75632 9.36379 5.83013 9.18597 5.87003C8.84859 5.94603 8.45467 5.90165 8.09696 5.69952ZM8.18181 8.20011L8.82971 8.57435C7.50683 9.31579 7.1472 10.6925 6.72 12.0335C6.29285 10.6925 5.93317 9.31579 4.61035 8.57435L5.25824 8.20011C5.32092 8.17642 5.37449 8.1335 5.41127 8.07751C5.44806 8.02151 5.46618 7.9553 5.46304 7.88837C5.40368 6.63253 5.74277 6.07717 6.20016 5.72848C6.36421 5.60357 6.54331 5.54085 6.72 5.54085C6.89669 5.54085 7.07579 5.60357 7.23989 5.72848C7.69728 6.07717 8.03637 6.63253 7.97701 7.88837C7.97387 7.9553 7.99199 8.02151 8.02878 8.07751C8.06557 8.1335 8.11914 8.17642 8.18181 8.20011ZM6.72 0C7.46891 0.0201067 8.21968 0.165493 8.87125 0.44832C9.32245 0.644427 9.74347 0.903467 10.1247 1.21323C10.2969 1.35307 10.4386 1.48816 10.5948 1.64368C11.0159 1.65824 11.6315 1.19035 11.9172 0.752533C11.4254 2.3648 9.18128 4.26875 7.62763 4.99728C7.62699 4.99701 7.62656 4.99664 7.62608 4.99632C7.34725 4.78341 7.03365 4.67696 6.72 4.67696C6.40635 4.67696 6.0928 4.78341 5.81397 4.99632C5.81349 4.99659 5.81307 4.99707 5.81243 4.99728C4.25872 4.26875 2.01461 2.3648 1.52283 0.752533C1.80853 1.19035 2.42405 1.65824 2.84523 1.64368C3.00144 1.48821 3.1432 1.35307 3.31531 1.21323C3.69653 0.903467 4.11755 0.644427 4.56875 0.44832C5.22037 0.165493 5.97115 0.0201067 6.72 0ZM5.34304 5.69952C4.85365 5.45547 4.23083 5.09621 3.60736 4.604C3.47589 4.87701 3.46149 5.11525 3.52917 5.30763C3.57723 5.4432 3.66768 5.56112 3.78656 5.65493C3.91541 5.75632 4.07627 5.83013 4.25408 5.87003C4.59147 5.94603 4.98533 5.90165 5.34304 5.69952Z" fill="#FFFFFF"/>
<path fill-rule="evenodd" clip-rule="evenodd" d="M10.5156 4.00066C10.8588 3.65426 11.1613 3.27084 11.4045 2.92871L11.528 3.16119C11.9257 3.95676 12.1323 4.74914 12.1323 5.64087L12.1314 7.05591L12.1389 7.78946C12.1677 9.59031 12.5573 11.4123 13.44 13.0798L11.5932 11.5906L10.2865 13.7111L8.91371 12.4187L6.72 15.9787L4.52629 12.4188L3.15355 13.7111L1.84683 11.5906L0 13.0798C0.882667 11.4124 1.27232 9.59036 1.30117 7.78951L1.30864 7.05596L1.30779 5.64092C1.30779 4.74914 1.51435 3.95676 1.91211 3.16124L2.03557 2.92876C2.27877 3.2709 2.58117 3.65426 2.92448 4.00071L2.81728 4.22338C2.60901 4.65586 2.54005 5.13943 2.70229 5.59932C2.80688 5.89554 2.99776 6.14956 3.24384 6.34348C3.48277 6.5318 3.76555 6.65874 4.0616 6.7254C4.25445 6.76882 4.45093 6.78668 4.64613 6.7806C4.60059 7.03879 4.58069 7.30658 4.57941 7.57943L2.83733 8.58562L4.18165 9.33916C4.2891 9.39941 4.39139 9.46842 4.48747 9.54551C5.59579 10.5406 6.26213 13.4844 6.72005 14.9224C7.17803 13.4844 7.84432 10.5406 8.95269 9.54551C9.04876 9.46841 9.15105 9.39939 9.25851 9.33916L10.6028 8.58562L8.86069 7.57943C8.85941 7.30658 8.83952 7.03879 8.79397 6.7806C8.98917 6.78668 9.18565 6.76882 9.37851 6.7254C9.67456 6.65874 9.95739 6.5318 10.1963 6.34348C10.4423 6.14956 10.6332 5.89554 10.7378 5.59932C10.9001 5.13943 10.831 4.65591 10.6228 4.22338L10.5156 4.00071L10.5156 4.00066Z" fill="#FFFFFF"/>
</g>
<defs>
<clipPath id="clip0_24368_82394">
<rect width="13.44" height="16" fill="white"/>
</clipPath>
</defs>
</svg>
