<svg width="17" height="16" viewBox="0 0 17 16" fill="none" xmlns="http://www.w3.org/2000/svg">
<path d="M2.34542 12.5833C3.02139 13.5235 3.88846 14.3103 4.8898 14.8919C5.89113 15.4735 7.0041 15.8369 8.15573 15.9583C7.56323 15.0667 6.702 14.2464 5.62682 13.6219C4.55164 12.9974 3.41301 12.6563 2.34542 12.5833Z" fill="#FFFFFF"/>
<path d="M7.07157 11.1353C5.00012 9.93182 2.75811 9.62512 1.15388 10.1669C1.30875 10.6788 1.51299 11.1743 1.76374 11.6467C3.15754 11.6144 4.67933 11.993 6.09537 12.8154C7.5114 13.6379 8.59445 14.773 9.25718 16C9.792 15.9836 10.324 15.9155 10.8457 15.7966C10.5214 14.1349 9.14248 12.339 7.07157 11.1353Z" fill="#FFFFFF"/>
<path d="M16.9427 6.25045C16.6793 5.1792 16.2028 4.17201 15.5415 3.28902C14.8803 2.40603 14.0479 1.66534 13.094 1.11118C12.1402 0.557017 11.0844 0.200752 9.98983 0.063655C8.89524 -0.0734421 7.78424 0.01144 6.72318 0.313233C8.4958 0.530167 10.4634 1.19561 12.393 2.31662C14.3226 3.43763 15.8767 4.81706 16.9427 6.25045Z" fill="#FFFFFF"/>
<path d="M14.3636 10.1792C13.4563 8.67229 11.9019 7.22941 9.98722 6.11708C8.07251 5.00475 6.0496 4.3694 4.2927 4.32737C2.74705 4.29076 1.58699 4.74009 1.11082 5.55983C1.10811 5.56471 1.10431 5.56932 1.10133 5.5742C1.05849 5.72795 1.02161 5.88197 0.987984 6.03654C1.65289 5.77405 2.42327 5.62789 3.27989 5.61162C5.18484 5.57583 7.31676 6.18514 9.28408 7.32811C11.2514 8.47108 12.838 10.0219 13.7502 11.6939C14.1591 12.4472 14.4143 13.1889 14.5155 13.8974C14.6331 13.7922 14.7487 13.6835 14.8606 13.5704C14.8636 13.5652 14.8655 13.5598 14.8685 13.5544C15.3447 12.7338 15.1606 11.5038 14.3636 10.1792Z" fill="#FFFFFF"/>
<path d="M8.53049 8.62426C5.59836 6.92079 2.35818 6.65396 0.800049 7.84276C0.803109 8.21486 0.831557 8.58632 0.885195 8.95454C1.34354 8.8156 1.81593 8.72811 2.29364 8.69368C4.03481 8.56271 5.9544 9.04783 7.69638 10.0604C9.43836 11.0729 10.8116 12.5009 11.5605 14.0772C11.7675 14.509 11.9254 14.9627 12.0313 15.4298C12.3778 15.2939 12.7147 15.1347 13.0397 14.9533C13.3006 13.0107 11.4634 10.328 8.53049 8.62426Z" fill="#FFFFFF"/>
<path d="M15.8718 7.65705C14.9541 6.1518 13.3862 4.70485 11.458 3.58519C9.5297 2.46554 7.49892 1.82016 5.73633 1.76837C4.3927 1.72959 3.35196 2.05527 2.81233 2.67055C5.05299 2.29091 8.00844 2.92897 10.8731 4.59312C13.7377 6.25728 15.7568 8.50906 16.5361 10.6434C16.8032 9.87032 16.5708 8.8049 15.8718 7.65705Z" fill="#FFFFFF"/>
</svg>
