<svg width="15" height="16" viewBox="0 0 15 16" fill="none" xmlns="http://www.w3.org/2000/svg">
<g clip-path="url(#clip0_24370_82402)">
<path d="M14.1559 3.61575V6.25575L3.05701 11.3427L4.63678 12.2668L2.17058 13.4613L0.440002 12.4792V9.8392L11.4386 4.79093L9.78161 3.82725L12.3251 2.67139L14.1559 3.61575Z" fill="#FFFFFF"/>
<path d="M14.1559 8V12.4018L12.1513 13.4611L7.41196 11.0336L9.62713 9.95494L12.0943 11.188V8.94805L14.1559 8Z" fill="#FFFFFF"/>
<path d="M10.7839 14.2131L7.29793 15.9998L3.71265 14.2131L6.0823 13.1143L7.38989 13.7699L8.64506 13.1143L10.7839 14.2131Z" fill="#FFFFFF"/>
<path d="M10.9908 1.89609L8.46299 3.13931L7.29794 2.50483L6.18897 3.05103L3.81196 1.85471L7.29794 0L10.9908 1.89609Z" fill="#FFFFFF"/>
<path d="M7.13426 5.0151L4.91908 6.07809L2.58621 4.77878V7.12636L0.440002 8.1305V3.61188L2.52736 2.53418L7.13426 5.0151Z" fill="#FFFFFF"/>
</g>
<defs>
<clipPath id="clip0_24370_82402">
<rect width="13.7159" height="16" fill="white" transform="translate(0.440002)"/>
</clipPath>
</defs>
</svg>
