<svg width="16" height="16" viewBox="0 0 16 16" fill="none" xmlns="http://www.w3.org/2000/svg">
<path d="M14.7919 4.8104C14.7353 4.43698 14.6126 4.08814 14.4 3.77356C14.0448 3.24838 13.5676 2.88668 12.9458 2.75026C12.2647 2.60098 11.6696 2.78588 11.1747 3.27905C10.663 3.78868 10.1534 4.30033 9.6433 4.81108C6.9599 7.49882 4.2767 10.1863 1.59282 12.8733C1.46767 12.9987 1.33643 13.1179 1.19775 13.2499C1.23518 13.2747 1.24263 13.2833 1.25119 13.2844C1.28773 13.2893 1.32448 13.2931 1.36123 13.2952C1.96444 13.3297 2.47113 13.1031 2.90928 12.708C3.22588 12.4225 3.52534 12.1177 3.84329 11.834C4.3802 11.3548 5.0028 11.1446 5.72259 11.2806C5.83985 11.3027 5.96297 11.3264 6.06693 11.3809C6.9741 11.8567 7.9347 12.0254 8.94563 11.8779C9.84557 11.7467 10.6441 11.3771 11.3204 10.7689C12.412 9.78762 12.9268 8.55322 12.8896 7.08682C12.8691 6.65092 13.0366 6.35642 13.1525 6.06936C13.4355 5.36896 13.9393 4.94526 14.7236 4.91887C14.8122 4.91594 14.8003 4.86475 14.7919 4.8104Z" fill="#FFFFFF"/>
<path d="M11.8283 7.91313C11.6319 9.30787 10.8388 10.2608 9.4962 10.6669C8.177 11.0661 7.01907 10.7066 6.06905 9.70093C6.01967 9.6486 6.01719 9.60847 6.0704 9.55707C6.30244 9.33333 6.5329 9.10787 6.7622 8.8812C6.8082 8.83567 6.84 8.8334 6.8842 8.88553C7.349 9.43527 7.94633 9.69547 8.6616 9.66187C9.30673 9.63167 9.83307 9.34847 10.243 8.84987C10.2491 8.84247 10.2534 8.83293 10.2577 8.8242C10.259 8.82147 10.2579 8.8176 10.2581 8.80187C9.9614 8.72247 9.73313 8.54813 9.60913 8.25773C9.5302 8.07307 9.51873 7.87867 9.571 7.68473C9.63393 7.45113 9.7724 7.27073 9.97827 7.1424C10.1853 7.01367 10.4117 6.99427 10.6746 7.038C10.6349 6.9142 10.6065 6.8096 10.5679 6.7088C10.4457 6.38969 10.2572 6.11413 10.0024 5.88683C9.93273 5.8246 9.9388 5.78491 10.0015 5.72561C10.2281 5.51071 10.4525 5.29333 10.6751 5.07414C10.7271 5.02273 10.7628 5.0216 10.8158 5.07414C11.6102 5.85797 11.9843 6.80433 11.8283 7.91313Z" fill="#000000"/>
</svg>
