<svg width="16" height="16" viewBox="0 0 16 16" fill="none" xmlns="http://www.w3.org/2000/svg">
<g clip-path="url(#clip0_23368_53550)">
<path d="M7.94987 -0.0148149C3.53061 0.00592584 -0.03383 3.60296 -0.0145708 8.02074C0.00616998 12.4385 3.60321 16.0044 8.02099 15.9852C12.4388 15.9644 16.0047 12.3674 15.9854 7.94963C15.9647 3.53037 12.3677 -0.0340742 7.94987 -0.0148149ZM6.93654 7.59259C6.14691 7.59259 5.50543 6.95259 5.50543 6.16296C5.50543 5.37333 6.14543 4.73333 6.93654 4.73333C7.72617 4.73333 8.36617 5.37333 8.36617 6.16296C8.36617 6.95259 7.72617 7.59259 6.93654 7.59259ZM8.07728 9.13926L8.08469 9.13037L8.0921 9.12148C8.50099 9.38519 8.96617 9.47704 9.43136 9.49185C9.89802 9.5037 10.3721 9.46963 10.8402 9.37481C11.3069 9.27852 11.7662 9.13482 12.2091 8.95111C12.458 8.84889 12.7054 8.7363 12.941 8.60444C12.9425 8.60296 12.9439 8.60296 12.9454 8.60148C13.0921 8.51259 13.2358 8.42074 13.3765 8.32444C13.4077 8.30222 13.4373 8.28 13.4654 8.2563L13.4684 8.26074L13.4802 8.27556C13.1202 8.60296 12.6921 8.84593 12.2565 9.06074C11.8165 9.26815 11.3573 9.43852 10.8832 9.56148C10.4106 9.68296 9.91728 9.7763 9.41802 9.73037C8.92617 9.68444 8.40765 9.51259 8.07728 9.13926ZM11.7484 7.59259C11.7484 7.42074 11.8862 7.28296 12.0565 7.28148C12.2284 7.28148 12.3662 7.41926 12.3677 7.58963C12.3677 7.76 12.2299 7.90074 12.0595 7.90074C11.8891 7.90222 11.7484 7.76444 11.7484 7.59259ZM9.29802 15.2667C8.98839 13.1007 10.8788 10.9807 11.9454 9.8963C12.1869 9.65037 12.5617 9.31111 12.9099 8.95111C14.2936 7.65778 14.5691 6.11111 11.7365 5.33778C11.2002 5.18222 10.6432 4.96148 10.0802 4.73926C10.0625 4.68741 10.0417 4.63852 10.0195 4.59259C9.95432 4.48148 9.84173 4.35259 9.66987 4.20741C9.30099 3.88741 8.61061 3.8963 8.01358 4.03704C7.35284 3.88148 6.70247 3.82667 6.0758 3.9763C3.33654 4.73037 2.89654 6.06667 2.78987 7.67704C2.64469 9.4163 2.56024 10.7126 1.90099 12.1941C1.07876 11.0074 0.594318 9.57037 0.588392 8.01778C0.570615 3.93333 3.86691 0.605926 7.95284 0.588148C12.0388 0.57037 15.3647 3.86667 15.3839 7.95259C15.3988 11.6015 12.7706 14.6459 9.29802 15.2667Z" fill="#FFFFFF"/>
<path d="M7.94252 6.17634C7.94252 6.73189 7.49215 7.18226 6.93659 7.18226C6.38103 7.18226 5.93066 6.73189 5.93066 6.17634C5.93066 5.62078 6.38103 5.17041 6.93659 5.17041C7.49215 5.17041 7.94252 5.62078 7.94252 6.17634Z" fill="#FFFFFF"/>
</g>
<defs>
<clipPath id="clip0_23368_53550">
<rect width="16" height="16" fill="white"/>
</clipPath>
</defs>
</svg>
